# xmcd
#
# Track frame offsets: 
#        150
#        17402
#        29387
#        44917
#        64692
#        80690
#        96317
#        113237
#        130415
#        142605
#        156772
#
# Disc length: 2458 seconds
#
# Revision: 0
# Processed by: cddbd v1.4PL0 Copyright (c) Steve Scherf et al.
# Submitted via: ExactAudioCopy v0.90b4
#
DISCID=9009980b
DTITLE=Blues Company - One Way Street
DYEAR=1900
DGENRE=
TTITLE0=Mad Man Blues
TTITLE1=I Wanna Be Your Man
TTITLE2=Wait On Time
TTITLE3=A Fool For Your Stockings
TTITLE4=Boxes And Tins
TTITLE5=Don't Let Me Be Misunderstood
TTITLE6=Will The Circle Be Unbroken
TTITLE7=Phone Booth
TTITLE8=Find Yourself Another Fool
TTITLE9=One Way Street
TTITLE10=Bird Of Paradise
EXTD=
EXTT0=
EXTT1=
EXTT2=
EXTT3=
EXTT4=
EXTT5=
EXTT6=
EXTT7=
EXTT8=
EXTT9=
EXTT10=
PLAYORDER=
